<?xml version="1.0" encoding="utf-8"?>
<!-- Generator: Adobe Illustrator 26.5.0, SVG Export Plug-In . SVG Version: 6.00 Build 0)  -->
<svg version="1.1" id="Camada_1" xmlns="http://www.w3.org/2000/svg" xmlns:xlink="http://www.w3.org/1999/xlink" x="0px" y="0px"
	 viewBox="0 0 21.5 23" style="enable-background:new 0 0 21.5 23;" xml:space="preserve">
<style type="text/css">
	.st0{fill:#989898;}
</style>
<path class="st0" d="M20.1,4.5c0.3-1.3,0.3-2.7-0.3-3.9c-0.1-0.3-0.3-0.5-0.6-0.6h-0.1c0,0-0.1,0-0.1,0c-0.1,0-0.1,0-0.2,0
	c-0.2,0-0.6,0-0.9,0.1c-0.7,0.2-1.7,0.5-2.9,1.3c-2.2-0.5-4.5-0.5-6.7,0C6.9,0.7,5.9,0.3,5.2,0.1C4.8,0,4.5,0,4.3,0C4.2,0,4.1,0,4,0
	H3.9C3.5,0.2,3.3,0.4,3.2,0.6C2.6,1.9,2.6,3.2,2.9,4.5C2,5.7,1.5,7.1,1.5,8.6c0,2.9,0.9,4.9,2.4,6.1c1,0.9,2.2,1.3,3.4,1.6
	C7.1,16.9,7,17.5,7,18.2v0.1c-0.7,0.2-1.3,0.1-1.7,0c-0.5-0.1-0.9-0.4-1.2-0.7c-0.2-0.2-0.3-0.4-0.5-0.6c-0.2-0.2-0.4-0.5-0.6-0.7
	c-0.4-0.5-0.9-1-1.8-1.2C0.7,15,0.1,15.3,0,15.8s0.2,1.1,0.7,1.2c0.2,0,0.4,0.2,0.7,0.6C1.6,17.8,1.8,18,2,18.2s0.4,0.5,0.7,0.8
	c0.5,0.5,1.2,1,2.2,1.3c0.6,0.1,1.3,0.2,2.1,0V22c0,0.6,0.4,1,1,1s1-0.4,1-1v-3.9c0,0,0,0,0-0.1c0-0.7,0.2-1.3,0.7-1.8
	c0.3-0.3,0.4-0.7,0.2-1c-0.1-0.4-0.4-0.6-0.8-0.7c-1.5-0.2-2.9-0.6-3.9-1.4C4.3,12.3,3.5,11,3.5,8.5c0-1.1,0.4-2.3,1.2-3.1
	C5,5.1,5,4.7,4.9,4.4l0,0C4.6,3.6,4.6,2.8,4.8,2.1c0.5,0.1,1.4,0.4,2.6,1.3C7.7,3.5,8,3.5,8.3,3.5c2.1-0.6,4.4-0.6,6.5,0
	c0.3,0.1,0.6,0,0.8-0.1c1.3-0.9,2.1-1.2,2.6-1.3c0.2,0.8,0.2,1.6-0.1,2.4c-0.1,0.4-0.1,0.8,0.2,1c0.8,0.8,1.2,1.9,1.2,3.1
	c0,2.5-0.7,3.9-1.7,4.7s-2.4,1.2-3.9,1.4c-0.4,0-0.7,0.3-0.8,0.7c-0.1,0.4,0,0.8,0.2,1c0.5,0.5,0.7,1.2,0.7,1.8v0.1V22
	c0,0.6,0.4,1,1,1s1-0.4,1-1v-3.9c0-0.6-0.1-1.3-0.3-1.9c1.2-0.3,2.4-0.7,3.4-1.6c1.5-1.3,2.4-3.2,2.4-6.2C21.5,7.1,21,5.7,20.1,4.5z
	"/>
</svg>
